<svg xmlns="http://www.w3.org/2000/svg" width="21.535" height="29.366" viewBox="0 0 21.535 29.366">
  <g id="document" transform="translate(-68.267 0)">
    <g id="Page-1_7_" transform="translate(68.267 0)">
      <g id="_x30_08---Cancer-Documents" transform="translate(0 0)">
        <path id="Shape_13_" d="M70.225,29.366H84.908a1.958,1.958,0,0,0,1.958-1.958v-.489h.979A1.958,1.958,0,0,0,89.8,24.961V5.3a1.458,1.458,0,0,0-.43-1.039L85.541.43A1.458,1.458,0,0,0,84.5,0H73.161A1.958,1.958,0,0,0,71.2,1.958v.489h-.979A1.958,1.958,0,0,0,68.267,4.4v23A1.958,1.958,0,0,0,70.225,29.366ZM88.131,4.4H85.887a.489.489,0,0,1-.489-.489V1.671ZM72.182,1.958a.979.979,0,0,1,.979-.979H84.418V3.915a1.468,1.468,0,0,0,1.468,1.468h2.937V24.961a.979.979,0,0,1-.979.979H73.161a.979.979,0,0,1-.979-.979ZM69.246,4.4a.979.979,0,0,1,.979-.979H71.2V24.961a1.958,1.958,0,0,0,1.958,1.958H85.887v.489a.979.979,0,0,1-.979.979H70.225a.979.979,0,0,1-.979-.979Z" transform="translate(-68.267 0)" fill="#fff"/>
        <g id="Groupe_342" data-name="Groupe 342" transform="translate(4.894 1.958)">
          <path id="Path_19_" d="M154.089,359.38h5.873a.489.489,0,1,0,0-.979h-5.873a.489.489,0,1,0,0,.979Z" transform="translate(-153.6 -339.803)" fill="#fff" fill-rule="evenodd"/>
          <path id="Path_18_" d="M290.623,358.4a.489.489,0,1,0,0,.979H296.5a.489.489,0,1,0,0-.979Z" transform="translate(-282.303 -339.802)" fill="#fff" fill-rule="evenodd"/>
          <path id="Path_17_" d="M154.089,402.046h5.873a.489.489,0,1,0,0-.979h-5.873a.489.489,0,1,0,0,.979Z" transform="translate(-153.6 -380.021)" fill="#fff" fill-rule="evenodd"/>
          <path id="Path_16_" d="M296.5,401.067h-5.873a.489.489,0,1,0,0,.979H296.5a.489.489,0,1,0,0-.979Z" transform="translate(-282.303 -380.021)" fill="#fff" fill-rule="evenodd"/>
          <path id="Path_15_" d="M154.089,36.581a.489.489,0,0,0,.489-.489v-.979h.979a.489.489,0,1,0,0-.979h-1.468a.489.489,0,0,0-.489.489v1.468A.489.489,0,0,0,154.089,36.581Z" transform="translate(-153.6 -34.134)" fill="#fff" fill-rule="evenodd"/>
        </g>
        <path id="Shape_12_" d="M164.091,96.314H163.6a.489.489,0,1,0,0,.979h.807l.976.783a2.353,2.353,0,0,0-.179,1.963,2.2,2.2,0,0,0-.282.191h-2.3a.489.489,0,1,0,0,.979h1.6a2.18,2.18,0,0,0,.754,2.485l-.563.451H163.6a.489.489,0,0,0,0,.979h.489v.489a.489.489,0,1,0,.979,0v-.744l.941-.753a2.246,2.246,0,0,0,.283.028,2.159,2.159,0,0,0,.253-.016,1.98,1.98,0,0,0,1.95,1.917v1.035a.489.489,0,1,0,.979,0V105.8a1.884,1.884,0,0,0,.359-.251,1.96,1.96,0,0,0,.469-.614,2.161,2.161,0,0,0,2.279-.323l.32.256v.744a.489.489,0,0,0,.979,0v-.489h.489a.489.489,0,0,0,0-.979h-.807l-.38-.305a2.149,2.149,0,0,0-.277-2.278,2.678,2.678,0,0,0,.354-.353h2.087a.489.489,0,1,0,0-.979h-1.573a2.668,2.668,0,0,0-.644-2.591l.432-.346h.806a.489.489,0,0,0,0-.979h-.489v-.489a.489.489,0,1,0-.979,0v.744l-.6.48a2.673,2.673,0,0,0-1.113-.245c-.09,0-.178.016-.267.025a1.706,1.706,0,0,0-1.446-1.468v-1a.489.489,0,1,0-.979,0v1.151a1.709,1.709,0,0,0-.954,1.3h-.024a2.424,2.424,0,0,0-1.5.526l-.949-.761v-.744a.489.489,0,0,0-.979,0v.489Zm4.915,4.4a.508.508,0,0,0,.067.01.982.982,0,0,1,.758.473,2.189,2.189,0,0,0-.82,1.472.969.969,0,0,1-.73-.3.616.616,0,0,1-.049-.056.982.982,0,0,1-.1-1.1A1.007,1.007,0,0,1,169.006,100.719Zm-1.729,1.932a1.193,1.193,0,0,1-.395.364,1.224,1.224,0,1,1-.89-2.255,1.073,1.073,0,0,1,.3-.04,1.2,1.2,0,0,1,.842.346,1.969,1.969,0,0,0-.108.633A1.926,1.926,0,0,0,167.277,102.651Zm.24,1.416a.936.936,0,0,1,.068-.343,2.152,2.152,0,0,0,.385-.361,1.962,1.962,0,0,0,1.016.292,1.089,1.089,0,0,0,.134-.005,2.185,2.185,0,0,0,.373.66.993.993,0,0,1-.309.509.948.948,0,0,1-.365.2.86.86,0,0,1-.3.049A1,1,0,0,1,167.517,104.067Zm3.671.078a1.224,1.224,0,1,1,1.224-1.224A1.224,1.224,0,0,1,171.188,104.145ZM172.9,99.5a1.683,1.683,0,0,1-.783,1.437,2.115,2.115,0,0,0-1.409-.158,1.972,1.972,0,0,0-1.2-.959,1.782,1.782,0,0,1-.031-.32,1.672,1.672,0,0,1,.24-.87.908.908,0,0,1,.049-.084,1.714,1.714,0,0,1,3.137.953Zm-2.937-2.447c0,.021-.009.041-.011.062a2.684,2.684,0,0,0-.654.476,2.482,2.482,0,0,0-.8-.567.734.734,0,0,1,1.465.028Zm-2.049.788a1.476,1.476,0,0,1,.806.587A2.642,2.642,0,0,0,168.5,99.5a2.763,2.763,0,0,0,.026.3,1.963,1.963,0,0,0-.836.44,2.184,2.184,0,0,0-1.392-.5c-.052,0-.1.006-.154.01a1.452,1.452,0,0,1-.091-.5,1.468,1.468,0,0,1,1.468-1.468A1.441,1.441,0,0,1,167.915,97.837Z" transform="translate(-156.749 -88.483)" fill="#fff"/>
      </g>
    </g>
  </g>
</svg>
