<svg xmlns="http://www.w3.org/2000/svg" width="21.01" height="25.016" viewBox="0 0 21.01 25.016">
  <g id="medical_3_" data-name="medical(3)" transform="translate(-41)">
    <path id="Tracé_387" data-name="Tracé 387" d="M51.5,13.681a4.713,4.713,0,0,0-4.05,2.327.366.366,0,1,0,.632.37,3.937,3.937,0,1,1-.507,1.481.366.366,0,0,0-.727-.094A4.691,4.691,0,1,0,51.5,13.681Zm.44,1.466h-.879a.66.66,0,0,0-.66.66v1.466H48.94a.66.66,0,0,0-.66.66v.879a.66.66,0,0,0,.66.66h1.466v1.466a.66.66,0,0,0,.66.66h.879a.66.66,0,0,0,.66-.66V19.471H54.07a.66.66,0,0,0,.66-.66v-.879a.66.66,0,0,0-.66-.66H52.6V15.806A.66.66,0,0,0,51.945,15.147ZM54,18v.733H52.384a.514.514,0,0,0-.513.513v1.612h-.733V19.251a.514.514,0,0,0-.513-.513H49.013V18h1.612a.514.514,0,0,0,.513-.513V15.879h.733v1.612a.514.514,0,0,0,.513.513ZM56.928,3.054a.856.856,0,0,0-.855-.855H46.936a.856.856,0,0,0-.855.855v.879a.856.856,0,0,0,.855.855h9.137a.856.856,0,0,0,.855-.855Zm-.733.879a.122.122,0,0,1-.122.122H46.936a.122.122,0,0,1-.122-.122V3.054a.122.122,0,0,1,.122-.122h9.137a.122.122,0,0,1,.122.122Zm3.982,7.793H51.556a1.1,1.1,0,0,1-.915-.49l-.6-.893a1.829,1.829,0,0,0-1.525-.816H43.945v-7.7a1.1,1.1,0,0,1,1.1-1.1H57.966a1.1,1.1,0,0,1,1.1,1.1v8.55a.366.366,0,1,0,.733,0V1.832A1.834,1.834,0,0,0,57.966,0H45.044a1.834,1.834,0,0,0-1.832,1.832v7.7h-.38A1.834,1.834,0,0,0,41,11.36V23.184a1.834,1.834,0,0,0,1.832,1.832H60.177a1.834,1.834,0,0,0,1.832-1.832V13.559A1.834,1.834,0,0,0,60.177,11.726Zm1.1,11.458a1.1,1.1,0,0,1-1.1,1.1H42.832a1.1,1.1,0,0,1-1.1-1.1V11.36a1.1,1.1,0,0,1,1.1-1.1h5.689a1.1,1.1,0,0,1,.915.49l.6.893a1.829,1.829,0,0,0,1.525.816h8.621a1.1,1.1,0,0,1,1.1,1.1ZM56.562,7.72H46.448a.366.366,0,0,0,0,.733H56.562a.366.366,0,0,0,0-.733Zm0-1.466H46.448a.366.366,0,0,0,0,.733H56.562a.366.366,0,0,0,0-.733Z" fill="#fff"/>
  </g>
</svg>
